HIERARCHY
ROOT Hips
{
  OFFSET 1.44925e-005 102.336 -0.101585
  CHANNELS 6 Xposition Yposition Zposition Zrotation Xrotation Yrotation
  JOINT LeftUpLeg
  {
    OFFSET 8.9458 -8.66707 0.101652
    CHANNELS 3 Zrotation Xrotation Yrotation
    JOINT LeftLeg
    {
      OFFSET 0 -44.4227 1.3727
      CHANNELS 3 Zrotation Xrotation Yrotation
      JOINT LeftFoot
      {
        OFFSET -0.253549 -42.0924 -1.46059
        CHANNELS 3 Zrotation Xrotation Yrotation
        JOINT LeftToes
        {
          OFFSET -0.04 -4.41509 8.4991
          CHANNELS 3 Zrotation Xrotation Yrotation
          End Site
          {
            OFFSET 0.08 -0.047448 9.77979
          }
        }
      }
    }
  }
  JOINT Spine
  {
    OFFSET 0 11.8905 0
    CHANNELS 3 Zrotation Xrotation Yrotation
    JOINT Spine1
    {
      OFFSET 0 25.6574 0.127663
      CHANNELS 3 Zrotation Xrotation Yrotation
      JOINT RightShoulder
      {
        OFFSET -8.99 -0.362252 -0.22
        CHANNELS 3 Zrotation Xrotation Yrotation
        JOINT RightArm
        {
          OFFSET -10.2827 -0.00338 0.322123
          CHANNELS 3 Zrotation Xrotation Yrotation
          JOINT RightForeArm
          {
            OFFSET -26.364 0.099144 -1.42434
            CHANNELS 3 Zrotation Xrotation Yrotation
            JOINT RightHand
            {
              OFFSET -22.0324 0.085362 1.02216
              CHANNELS 3 Zrotation Xrotation Yrotation
              End Site
              {
                OFFSET -13.3284 -0.6 1.50291
              }
            }
          }
        }
      }
      JOINT LeftShoulder1
      {
        OFFSET 8.99 -0.362252 -0.22
        CHANNELS 3 Zrotation Xrotation Yrotation
        JOINT LeftArm
        {
          OFFSET 10.2827 -0.00337999 0.322123
          CHANNELS 3 Zrotation Xrotation Yrotation
          JOINT LeftForeArm
          {
            OFFSET 26.2597 0.099144 -1.42434
            CHANNELS 3 Zrotation Xrotation Yrotation
            JOINT LeftHand
            {
              OFFSET 22.0902 0.085362 1.02216
              CHANNELS 3 Zrotation Xrotation Yrotation
              End Site
              {
                OFFSET 13.419 -0.6 1.50291
              }
            }
          }
        }
      }
      JOINT Head
      {
        OFFSET 0 8.73416 0.011341
        CHANNELS 3 Zrotation Xrotation Yrotation
        End Site
        {
          OFFSET -0.29 12.7742 2.51395
        }
      }
    }
  }
  JOINT RightUpLeg
  {
    OFFSET -8.9458 -8.66707 0.101652
    CHANNELS 3 Zrotation Xrotation Yrotation
    JOINT RightLeg
    {
      OFFSET 0 -44.4227 1.3727
      CHANNELS 3 Zrotation Xrotation Yrotation
      JOINT RightFoot
      {
        OFFSET 0.253549 -42.0924 -1.46059
        CHANNELS 3 Zrotation Xrotation Yrotation
        JOINT RightToes
        {
          OFFSET 0.04 -4.41509 8.4991
          CHANNELS 3 Zrotation Xrotation Yrotation
          End Site
          {
            OFFSET -0.08 -0.137448 9.77979
          }
        }
      }
    }
  }
}
MOTION
Frames:	21
Frame Time:	0.0333333
18.5051 100.807 -0.0395562 -6.48437 -1.10177 -90.4326 -0.830458 12.8241 5.77075 1.17676 40.3857 17.5091 -3.15657 10.523 0.420424 -1.35229e-009 8.75221e-006 -1.46697e-008 -2.68246 11.5699 -5.93347 5.60271 0.914662 -6.88233 35.7811 1.83724 0.363919 25.6196 -6.7687 -45.012 1.03539 23.4652 52.5624 -14.6092 9.0838 1.40397 -36.0347 2.7542 -3.02775 -38.478 -12.6313 -23.1091 24.2933 20.4152 -99.0974 5.82328 9.61819 -0.917488 1.17751 -16.3598 2.68495 -0.471304 -15.8983 -2.28411 -1.05857 26.7559 -18.0957 10.7823 -27.7009 1.66501 0.0462048 0.000530889 0.662642 
14.9464 97.5696 -0.494351 -5.9835 0.533214 -89.3469 2.5048 9.20813 5.11166 1.36299 51.0521 16.0526 -5.08731 10.5537 0.72674 -1.35229e-009 8.75221e-006 -1.46697e-008 1.81647 11.9792 -6.10861 4.77608 -0.0572531 -6.11432 35.7498 1.81687 0.318202 25.9661 -7.964 -43.3324 1.19607 23.3579 53.6782 -14.7195 9.09936 1.21991 -37.7201 2.93538 -3.17999 -37.1807 -11.9871 -18.816 24.2555 20.6826 -98.5003 5.82328 9.61819 -0.917488 0.081697 -15.9332 1.89311 2.0999 -18.219 -1.18553 -1.18697 33.2265 -19.8446 9.37071 -25.7862 1.25478 0.0462048 0.000530889 0.662642 
11.9006 94.0966 -0.796371 -5.95692 4.33365 -91.7121 6.64871 4.8929 4.11979 1.74014 63.2163 14.3094 -6.48843 9.83381 0.911809 -1.35229e-009 8.75221e-006 -1.46697e-008 8.41284 14.359 -5.72783 3.59402 -1.46137 -4.45937 36.2712 1.78937 0.205471 26.504 -8.83965 -38.0773 2.14805 22.7739 53.3234 -15.6269 9.09438 0.847992 -40.6948 3.25636 -3.41521 -35.0849 -12.1648 -14.1153 25.5959 21.4695 -96.7745 5.82328 9.61819 -0.917488 -0.868024 -17.3813 1.12268 6.69461 -21.984 -0.430933 -1.35058 43.0389 -19.5334 6.74612 -23.7193 0.694733 0.0462048 0.000530889 0.662642 
9.13756 90.8402 -1.08394 -6.77834 7.69275 -93.1146 9.09779 0.410726 2.12345 2.90962 75.5055 11.1758 -6.37681 6.75052 0.748389 -1.35229e-009 8.75221e-006 -1.46697e-008 12.9165 17.6148 -5.33612 3.45003 -1.16912 -2.97737 37.8242 1.77843 0.0451014 27.2659 -8.37252 -26.5713 2.21612 22.6763 50.1475 -16.6896 9.10231 0.358877 -44.3348 3.67192 -3.69676 -32.6592 -14.3818 -8.75936 27.2388 23.506 -92.8289 5.82328 9.61819 -0.917488 -0.997068 -21.1295 1.15327 11.1124 -24.2435 0.817046 -1.64655 52.3969 -18.9888 4.59007 -25.1455 0.433894 0.0462048 0.000530889 0.662642 
6.30633 88.4665 -1.38412 -7.59097 9.24347 -94.4986 8.9936 -4.92839 -0.359369 10.0272 85.9121 2.59531 -5.61963 1.75043 0.434239 -1.35229e-009 8.75221e-006 -1.46697e-008 14.7901 19.751 -5.14182 3.34723 0.521193 -1.99695 39.7411 1.7903 -0.0846312 28.4546 -6.91893 -11.4961 0.991236 23.5244 46.2996 -16.767 9.14498 0.0191613 -46.9674 3.97517 -3.86906 -30.4513 -17.8843 -2.59581 26.454 27.0723 -85.1116 5.82328 9.61819 -0.917488 -0.3114 -24.9217 1.543 13.8034 -24.2722 2.47396 -1.96239 58.7121 -19.3651 4.765 -29.6158 0.643419 0.0462048 0.000530889 0.662642 
3.15444 87.357 -1.61802 -7.54291 9.59946 -95.9243 7.69818 -11.4806 -2.06062 166.71 86.906 -153.904 -5.52504 -3.22123 0.21689 -1.35229e-009 8.75221e-006 -1.46697e-008 16.5944 20.4581 -4.78969 1.21574 1.22692 -0.744951 40.6671 1.79912 -0.137299 31.2756 -6.88142 1.97832 -0.711784 24.9453 45.5327 -15.9258 9.16506 0.176274 -47.9598 4.04408 -3.8427 -28.1093 -20.2081 4.19244 21.6199 30.4552 -73.4742 5.82328 9.61819 -0.917488 0.0581602 -26.4806 0.930283 15.0004 -23.0393 4.15871 -2.17267 61.5869 -19.8225 6.61534 -33.5236 1.22961 0.0462048 0.000530889 0.662642 
-0.30767 87.5013 -1.76076 -6.88102 9.61882 -97.5979 6.61829 -18.3226 -2.73268 173.071 83.8406 -158.929 -5.62303 -7.19446 0.0525993 -1.35229e-009 8.75221e-006 -1.46697e-008 19.0639 20.6977 -4.00351 -2.34912 0.3668 1.05087 40.1812 1.79461 -0.10935 36.1618 -8.47685 12.29 -2.3146 25.9933 48.7377 -15.2967 9.15372 0.51044 -48.201 4.01349 -3.75097 -25.3891 -19.6089 10.8463 14.5456 31.573 -60.5398 5.82328 9.61819 -0.917488 -0.572843 -26.1914 -0.925486 15.1727 -20.887 5.12987 -2.14943 61.5894 -19.188 7.80595 -35.2829 1.6384 0.0462048 0.000530889 0.662642 
-4.05671 88.7757 -1.90599 -6.39142 9.20184 -98.8008 5.49516 -24.0387 -3.23481 171.457 84.6831 -155.767 -5.48817 -10.4626 -0.0888733 -1.35229e-009 8.75221e-006 -1.46697e-008 20.1802 20.7155 -2.78632 -4.83595 -0.439656 2.68015 39.0525 1.77977 -0.0528844 40.8684 -9.28855 20.7646 -3.85153 26.4849 54.1582 -15.4733 9.13998 0.549919 -48.4659 4.0091 -3.70381 -23.1419 -16.617 16.5813 8.41084 30.5334 -49.5442 5.82328 9.61819 -0.917488 -1.56728 -25.7022 -2.90346 13.9775 -17.1329 4.84309 -1.87514 58.6402 -17.7626 7.80442 -36.0859 1.6964 0.0462048 0.000530889 0.662642 
-8.17522 91.0147 -2.14666 -6.09105 7.69235 -98.9817 3.54238 -28.1557 -3.94994 121.693 89.0226 -104.524 -6.17778 -12.9539 -0.228544 -1.35229e-009 8.75221e-006 -1.46697e-008 18.5651 19.8869 -1.24683 -5.53993 -0.626411 3.70744 38.0302 1.75519 -0.0249999 43.7758 -8.797 27.3012 -5.75374 26.7558 60.5048 -15.5339 9.16706 0.308247 -48.4502 3.97096 -3.63752 -22.1014 -12.8833 21.8122 4.65533 28.9187 -42.054 5.82328 9.61819 -0.917488 -2.02479 -25.1541 -4.37866 11.1958 -11.7636 3.68867 -1.50762 52.4817 -16.5137 7.60357 -36.1721 1.64983 0.0462048 0.000530889 0.662642 
-12.5989 93.8605 -2.42728 -5.51567 5.20477 -98.5317 1.06858 -30.8758 -4.221 6.68047 82.4465 11.9389 -7.76513 -14.3957 -0.392587 -1.35229e-009 8.75221e-006 -1.46697e-008 15.4432 18.4131 0.404557 -6.0881 -1.27892 4.43506 37.2683 1.72247 -0.0368152 45.6593 -8.19298 30.7402 -7.10285 26.4027 67.1692 -14.5842 9.25785 -0.0615237 -47.6968 3.81594 -3.46614 -21.9733 -9.35478 27.2793 2.8738 27.7646 -38.1919 5.82328 9.61819 -0.917488 -1.72026 -23.6318 -5.80688 7.44239 -5.93653 2.25924 -1.22655 44.2778 -15.3247 7.63628 -33.8895 1.50136 0.0462048 0.000530889 0.662642 
-17.0882 96.853 -2.6059 -4.76762 2.91351 -98.0906 -0.799429 -31.9832 -3.62829 3.04607 72.2994 16.5632 -8.78065 -15.5005 -0.534107 -1.35229e-009 8.75221e-006 -1.46697e-008 12.9304 17.0494 1.85144 -7.51144 -2.31432 5.25982 36.6368 1.69029 -0.0590395 47.2011 -7.78443 31.6501 -6.8876 25.4151 73.4889 -13.2513 9.3653 -0.486538 -46.6427 3.62169 -3.25917 -21.8485 -6.49231 32.7221 2.21669 27.1444 -37.5195 5.82328 9.61819 -0.917488 -1.13325 -21.5525 -7.52949 3.83086 -0.658274 0.426135 -1.00096 36.3174 -13.1787 8.07294 -28.3784 1.21002 0.0462048 0.000530889 0.662642 
-21.5337 99.604 -2.62628 -4.2204 1.71832 -97.9898 -1.43263 -31.2041 -2.61375 1.93716 61.044 17.6573 -9.21581 -16.8193 -0.667591 -1.35229e-009 8.75221e-006 -1.46697e-008 11.7133 15.6502 2.9881 -9.00258 -2.21723 6.16582 35.9845 1.66527 -0.0635172 47.909 -6.9665 31.9773 -6.39846 24.5437 79.1241 -12.3749 9.44284 -0.893143 -46.0403 3.50516 -3.12532 -21.1576 -5.0154 37.3685 2.16091 26.8872 -39.0437 5.82328 9.61819 -0.917488 -0.83544 -20.228 -9.02993 1.1957 3.70856 -2.27552 -0.823781 30.2645 -9.69566 9.15304 -20.8109 0.818299 0.0462048 0.000530889 0.662642 
-25.9807 101.834 -2.55343 -3.71071 1.39378 -98.0605 -1.25761 -29.2191 -1.68467 1.40128 49.6282 17.8978 -10.123 -17.5055 -0.799787 -1.35229e-009 8.75221e-006 -1.46697e-008 10.9249 13.709 3.86298 -9.6405 -0.886956 6.87781 35.1991 1.64228 -0.052185 47.6438 -5.41662 32.4586 -7.31009 24.0458 83.9309 -11.5718 9.49788 -1.1537 -45.7253 3.45419 -3.0725 -20.2135 -5.30986 41.2487 2.49574 26.9145 -41.5278 5.82328 9.61819 -0.917488 -0.793503 -19.5825 -9.73371 -0.437654 6.8395 -5.47145 -0.71929 26.4985 -6.20565 10.2043 -13.0123 0.281601 0.0462048 0.000530889 0.662642 
-30.4179 103.331 -2.45164 -3.18467 1.20966 -98.0181 -1.05876 -26.8261 -0.691133 1.1985 39.0767 19.0453 -10.8049 -17.4033 -0.851895 -1.35229e-009 8.75221e-006 -1.46697e-008 9.83273 11.951 4.39266 -9.63462 -0.0294115 7.15715 34.4009 1.61989 -0.0381867 47.0411 -3.44829 32.2909 -8.76698 23.629 87.6249 -10.3342 9.55744 -1.3287 -44.9488 3.39771 -3.07282 -19.7002 -6.59557 44.7156 3.05991 27.1073 -44.1206 5.82328 9.61819 -0.917488 -0.499199 -18.5757 -9.80297 -1.57234 8.69612 -7.44065 -0.494118 25.1258 -4.84391 10.4859 -6.38736 -0.277131 0.0462048 0.000530889 0.662642 
-34.7627 103.894 -2.30279 -3.19141 1.08662 -97.841 -1.02232 -23.8905 0.658248 1.18566 30.3282 21.209 -10.2921 -18.1485 -0.869846 -1.35229e-009 8.75221e-006 -1.46697e-008 8.84512 11.4401 4.49646 -9.7502 -0.120787 7.1291 33.8455 1.61062 -0.0125149 46.507 -1.57254 31.1278 -9.00562 23.2786 89.8552 -9.29104 9.60357 -1.4579 -43.7308 3.32383 -3.10101 -19.8446 -7.60984 46.9578 3.69275 27.355 -46.3188 5.82328 9.61819 -0.917488 0.129752 -17.3465 -9.77766 -2.35025 9.85069 -7.87062 -0.538052 26.41 -5.04776 10.4192 -1.93141 -0.6584 0.0462048 0.000530889 0.662642 
-38.9989 103.347 -2.04517 -3.86675 1.38096 -97.8445 -0.871129 -20.4104 1.65991 1.15516 24.2591 23.4512 -9.62183 -20.1177 -0.970647 -1.35229e-009 8.75221e-006 -1.46697e-008 8.70654 11.7001 4.39386 -10.3957 0.222392 7.17776 33.5736 1.6234 0.0438902 45.8405 -0.11139 29.6344 -8.12465 23.1832 90.3735 -9.21383 9.60597 -1.45696 -42.7992 3.27217 -3.13209 -20.2968 -7.97377 46.9829 4.43417 27.7162 -47.9795 5.82328 9.61819 -0.917488 0.661146 -16.7889 -9.83073 -2.60403 10.5508 -6.16523 -0.664368 30.4411 -6.48588 10.7958 -0.0512859 -0.84107 0.0462048 0.000530889 0.662642 
-43.136 101.674 -1.68673 -4.52595 1.66179 -98.2016 -0.99681 -17.885 1.30548 1.09522 22.4322 25.6212 -9.68989 -21.0351 -1.05242 -1.35229e-009 8.75221e-006 -1.46697e-008 8.58313 11.8018 4.38986 -11.1364 1.13279 7.33839 33.4771 1.65043 0.120923 44.8829 1.06528 28.1606 -7.46465 23.3461 89.2142 -9.60415 9.59048 -1.42669 -42.3857 3.2527 -3.15299 -20.5308 -8.29518 45.5901 5.44502 28.2174 -49.7414 5.82328 9.61819 -0.917488 0.973091 -16.6187 -9.70237 -2.88921 9.95027 -3.26068 -0.77458 37.3532 -8.03534 11.4811 0.224472 -0.912813 0.0462048 0.000530889 0.662642 
-47.0322 99.0508 -1.35735 -5.00004 0.596814 -98.5541 -2.71496 -18.1881 0.994201 1.29592 26.6976 26.5638 -9.18083 -19.6698 -0.889512 -1.35229e-009 8.75221e-006 -1.46697e-008 6.23772 12.5303 4.46302 -11.1299 0.908332 7.08251 33.6565 1.68131 0.182069 43.8331 2.22027 26.4144 -7.66934 23.6954 86.763 -9.38627 9.60412 -1.51185 -42.1133 3.24238 -3.17206 -20.3805 -9.19846 43.9968 6.5514 28.5787 -52.2445 5.82328 9.61819 -0.917488 1.48383 -16.2074 -9.23525 -4.43931 7.40617 -0.382821 -0.925093 47.3131 -8.7568 12.0662 1.03176 -1.03425 0.0462048 0.000530889 0.662642 
-50.5384 95.7282 -1.14191 -6.13939 -1.9323 -98.2537 -6.04475 -20.8153 1.33833 1.44163 36.5031 26.1715 -6.95793 -18.5774 -0.577261 -1.35229e-009 8.75221e-006 -1.46697e-008 1.57278 15.0982 4.32563 -10.2988 -0.539201 6.13811 34.2995 1.71072 0.195529 43.0876 3.046 24.5593 -8.4823 24.3513 82.9451 -8.90349 9.60909 -1.33843 -42.0359 3.25747 -3.21463 -19.9926 -10.3766 40.873 7.09793 28.5339 -54.3983 5.82328 9.61819 -0.917488 2.35754 -16.6488 -8.7101 -7.21309 3.90606 2.11681 -1.19861 59.3956 -8.38737 12.6591 3.13613 -1.29667 0.0462048 0.000530889 0.662642 
-53.6952 92.1605 -0.98385 -8.24287 -4.54879 -97.449 -9.59625 -23.007 1.85345 1.72066 47.6245 25.3395 -4.61152 -21.0324 -0.436916 -1.35229e-009 8.75221e-006 -1.46697e-008 -2.72547 18.6228 4.03446 -9.81848 -0.718632 5.1052 35.2941 1.73291 0.158679 43.0947 2.81427 23.2305 -9.42676 25.7019 76.3414 -9.80393 9.50426 -0.409499 -42.7564 3.35307 -3.30188 -19.4874 -10.9843 33.3769 6.78589 28.4193 -53.9624 5.82328 9.61819 -0.917488 3.14474 -19.3082 -8.53363 -9.54633 0.429396 4.52145 -1.92834 71.8858 -7.05164 12.8162 3.96543 -1.39768 0.0462048 0.000530889 0.662642 
-56.7336 89.145 -0.802417 -10.3245 -6.05059 -96.8616 -12.1121 -23.3027 1.8654 2.09802 56.2103 25.3117 -4.58905 -26.4766 -0.64628 -1.35229e-009 8.75221e-006 -1.46697e-008 -4.78237 21.0297 3.77786 -10.1933 1.22788 4.54048 36.3833 1.7471 0.0957362 43.9022 1.38687 22.2201 -9.66854 27.895 65.2351 -12.5998 9.24509 0.973445 -44.3268 3.53348 -3.4267 -18.8125 -10.7269 21.6575 6.36578 28.7014 -50.906 5.82328 9.61819 -0.917488 3.45828 -22.7503 -8.7116 -9.94721 -3.60379 6.81882 -5.27855 83.1346 -3.78686 11.5266 0.976429 -0.994652 0.0462048 0.000530889 0.662642 
